<svg id="Layer_1" data-name="Layer 1" xmlns="http://www.w3.org/2000/svg" viewBox="0 0 3073.02 680.63"><defs><style>.cls-1{fill:#d3a95f;}.cls-2{fill:#485daa;}.cls-3{fill:#0e2074;}.cls-4{fill:#707070;}</style></defs><path class="cls-1" d="M371.33,562.24a258.43,258.43,0,0,1-91.62,16.65C136.26,578.89,20,462.63,20,319.18S136.26,59.44,279.71,59.44a258.43,258.43,0,0,1,91.62,16.65C273.06,113.1,203.18,208,203.18,319.18S273.06,525.27,371.33,562.24Z"/><path class="cls-2" d="M371.33,76.09C273.06,113.1,203.18,208,203.18,319.18s69.88,206.09,168.15,243.06c98.23-37,168.12-131.85,168.12-243.06S469.56,113.1,371.33,76.09ZM478.72,238.73,355.81,427.07c-.39.56-.74,1.16-1.17,1.73-2.58,3.39-5.69,3.57-8.59.42-6.68-7.17-13.29-14.38-19.93-21.63q-34.26-37.27-68.54-74.65a8.7,8.7,0,0,1-2.09-4.28c-.28-2.58,2-4.63,5.16-4.67.64.25,1.81.6,2.9,1.1q39.66,18.56,79.29,37.18c2.26,1.06,3.53.71,5.19-1Q409,297.41,470,233.71a34.66,34.66,0,0,1,2.76-2.79,4.57,4.57,0,0,1,6-.11,4.7,4.7,0,0,1,1.21,5.91A22.53,22.53,0,0,1,478.72,238.73Z"/><path class="cls-3" d="M722.62,319.18c0,143.45-116.26,259.71-259.7,259.71a258.22,258.22,0,0,1-91.59-16.65c98.23-37,168.12-131.85,168.12-243.06S469.56,113.1,371.33,76.09a258.22,258.22,0,0,1,91.59-16.65C606.36,59.44,722.62,175.74,722.62,319.18Z"/><path class="cls-3" d="M962.05,506.2q-47.41,0-84.69-22.51t-58.73-63.6Q797.2,379,797.19,323.48q0-56,21.44-97.19t58.73-63.61q37.27-22.38,84.69-22.39t84.57,22.39q37.16,22.4,58.6,63.61t21.44,97.19q0,55.75-21.44,96.84t-58.6,63.49Q1009.45,506.21,962.05,506.2Zm0-56.69q28.82,0,51.69-14.65t36.09-42.77q13.23-28.09,13.22-68.61,0-40.73-13.22-69t-36.09-42.88Q990.87,197,962.05,197q-29.07,0-51.94,14.65T874,254.52q-13.21,28.23-13.22,69,0,40.51,13.22,68.61t36.09,42.77Q933,449.5,962.05,449.51Z"/><path class="cls-3" d="M1262.12,506.44q-37.17,0-65.4-16.67a114.26,114.26,0,0,1-43.83-46.58q-15.62-29.9-15.61-69.44t15.61-69.56a114.87,114.87,0,0,1,43.83-46.81q28.23-16.8,65.4-16.8,37.64,0,65.63,16.8t43.59,46.81q15.6,30,15.61,69.56t-15.61,69.44q-15.6,29.91-43.59,46.58T1262.12,506.44Zm0-50.26q20,0,34.18-10.25t21.8-28.82q7.62-18.58,7.62-43.36,0-25-7.62-43.6t-21.8-28.94q-14.17-10.36-34.18-10.36-19.55,0-33.83,10.36t-21.92,28.94q-7.62,18.59-7.62,43.6t7.62,43.48q7.62,18.47,21.8,28.7T1262.12,456.18Z"/><path class="cls-3" d="M1406.86,500.73V245.82h58.37l.47,56.94h-4.52q6.66-20.73,18.7-34.42a76.92,76.92,0,0,1,28-20.49,84.29,84.29,0,0,1,33.35-6.79q29.07,0,49.31,16.91t25.49,45.5h-7.62a82,82,0,0,1,17.51-33.23,83.62,83.62,0,0,1,29.78-21.56,94.77,94.77,0,0,1,38.23-7.62q23.82,0,43,10.36t30.26,30.49q11.07,20.14,11.08,49.67V500.73h-60.51V340.4q0-24.78-13.7-36.33t-32.76-11.55q-15.24,0-26.2,6.43a44.48,44.48,0,0,0-17,17.86Q1622,328.26,1622,343.5V500.73h-58.84v-163q0-20.73-12.75-33t-32.75-12.26a50.9,50.9,0,0,0-25,6.31,46.13,46.13,0,0,0-18.22,18.58q-6.8,12.27-6.79,30.14V500.73Z"/><path class="cls-3" d="M1886.31,505q-25.24,0-44.9-8.57a70.53,70.53,0,0,1-31.09-25.61q-11.43-17-11.43-42.29,0-21.68,8.1-35.85a62,62,0,0,1,22-22.63,112.91,112.91,0,0,1,31.92-12.87,267.62,267.62,0,0,1,37.29-6.31q23.34-2.61,37.16-4.64t20-6.08q6.19-4.05,6.19-12.63v-1.66a35.74,35.74,0,0,0-5.47-19.89,36.6,36.6,0,0,0-15.73-13.23q-10.25-4.75-25-4.76t-25.85,4.76a46.16,46.16,0,0,0-17.75,12.87,36.33,36.33,0,0,0-8.1,18.34L1806,321.34q2.87-24.78,17-42.64t38-27.76q23.82-9.87,55.27-9.88a152.77,152.77,0,0,1,42.64,5.6,98.14,98.14,0,0,1,33.36,16.55A73.91,73.91,0,0,1,2014,290.37q7.63,16.2,7.63,37.4v173h-59.08V465h-1.43a74,74,0,0,1-15.49,20.37,69.13,69.13,0,0,1-24.3,14.41Q1906.8,505,1886.31,505Zm15-44.78q19.53,0,33-7.27a50.64,50.64,0,0,0,27.51-45.86V378.75a27,27,0,0,1-8.69,3.81q-5.85,1.68-13.7,3.22t-16.56,3q-8.7,1.42-17.27,2.62a111.62,111.62,0,0,0-23.94,6.07A43.74,43.74,0,0,0,1864.28,409q-6.55,7.38-6.55,19.06a27.83,27.83,0,0,0,5.48,17.27,34,34,0,0,0,15.24,11.08Q1888.22,460.23,1901.32,460.23Z"/><path class="cls-4" d="M1993.66,200.08V145.77h283.49v54.31H2167.09V500.73h-63.37V200.08Z"/><path class="cls-4" d="M2257,500.73V245.82h58.61v42.41h1.19q6.9-21.92,22.39-33.47T2379,243.2q5.73,0,11.08.36c3.58.24,6.55.52,8.94.83v54.08a108.54,108.54,0,0,0-11.56-1.43q-8.22-.72-16.79-.71a54.77,54.77,0,0,0-27,6.67,47,47,0,0,0-18.94,19.77q-6.91,13.11-6.91,32.4V500.73Z"/><path class="cls-4" d="M2500.89,505.49q-26.44,0-46.81-11.55t-31.8-33.83q-11.45-22.28-11.44-54.44V245.82h60.75V396.14q0,27.41,13.46,41.93t37.52,14.53q16,0,28.47-6.55t19.77-20.25q7.26-13.69,7.27-34.66V245.82h60.51V500.73h-59.08l-.24-64.33h10.24q-11.91,33.6-34,51.34T2500.89,505.49Z"/><path class="cls-4" d="M2769.51,506.68q-30.72,0-54.79-9.53t-38.95-27.75q-14.89-18.22-17.51-44.67l59.08-2.38q2.86,18.58,16,28.59t35.74,10q21.91,0,34.66-8.69t12.74-22a22.13,22.13,0,0,0-9.17-18.46q-9.17-7-25.61-10.6l-43.59-9.06q-36.21-7.62-54.91-26T2664.46,319q0-23.34,12.74-41t35.85-27.39q23.11-9.76,54.08-9.77,30.49,0,53.36,9.89t36.21,27.87q13.35,18,15,42.76l-56.22,2.38a37.88,37.88,0,0,0-13.7-26.92q-12.49-10.71-33.23-10.72-19.77,0-31.68,8.82T2725,316.81a22.9,22.9,0,0,0,8.81,18.47q8.8,7.26,25.49,10.84l45.26,9.29q37.65,8.1,55.51,25.13t17.87,44.67q0,24.78-13.94,43t-38.35,28.35Q2801.19,506.67,2769.51,506.68Z"/><path class="cls-4" d="M3031.47,245.82v48.36H2877.1V245.82Zm-112-67.42h60.75V428.07q0,13.57,5.6,19.05T3006,452.6q5.47,0,12.86-.24t12.15-.23l2.15,48.12q-7.16.72-17.4.95t-20,.24q-38.58,0-57.41-16.32t-18.82-49.19Z"/></svg>